<svg xmlns="http://www.w3.org/2000/svg" xmlns:xlink="http://www.w3.org/1999/xlink" width="500" zoomAndPan="magnify" viewBox="0 0 375 374.999991" height="500" preserveAspectRatio="xMidYMid meet" version="1.0"><defs><clipPath id="17bf622183"><path d="M 149 9.882812 L 224 9.882812 L 224 121 L 149 121 Z M 149 9.882812 " clip-rule="nonzero"/></clipPath><clipPath id="6419bf12f0"><path d="M 8.164062 355 L 365.914062 355 L 365.914062 367.632812 L 8.164062 367.632812 Z M 8.164062 355 " clip-rule="nonzero"/></clipPath></defs><path fill="#ffde59" d="M 186.945312 59.199219 C 193.734375 59.199219 199.273438 53.660156 199.273438 46.871094 C 199.273438 40.078125 193.734375 34.539062 186.945312 34.539062 C 180.152344 34.539062 174.613281 40.078125 174.613281 46.871094 C 174.613281 53.660156 180.152344 59.199219 186.945312 59.199219 " fill-opacity="1" fill-rule="nonzero"/><path fill="#ffde59" d="M 279.417969 182.496094 L 267.085938 182.496094 L 267.085938 318.125 L 279.417969 318.125 L 279.417969 182.496094 " fill-opacity="1" fill-rule="nonzero"/><path fill="#ffde59" d="M 106.800781 182.496094 L 94.472656 182.496094 L 94.472656 318.125 L 106.800781 318.125 L 106.800781 182.496094 " fill-opacity="1" fill-rule="nonzero"/><path fill="#ffde59" d="M 279.417969 330.453125 L 94.472656 330.453125 L 94.472656 342.785156 L 279.417969 342.785156 L 279.417969 330.453125 " fill-opacity="1" fill-rule="nonzero"/><path fill="#ffde59" d="M 131.460938 207.15625 L 174.613281 207.15625 L 174.613281 219.488281 L 131.460938 219.488281 Z M 131.460938 182.496094 L 174.613281 182.496094 L 174.613281 194.828125 L 131.460938 194.828125 Z M 131.460938 157.839844 L 174.613281 157.839844 L 174.613281 170.167969 L 131.460938 170.167969 Z M 199.273438 207.15625 L 242.429688 207.15625 L 242.429688 219.488281 L 199.273438 219.488281 Z M 199.273438 182.496094 L 242.429688 182.496094 L 242.429688 194.828125 L 199.273438 194.828125 Z M 199.273438 157.839844 L 242.429688 157.839844 L 242.429688 170.167969 L 199.273438 170.167969 Z M 162.285156 231.816406 L 211.605469 231.816406 L 211.605469 293.464844 L 254.757812 293.464844 L 254.757812 120.847656 L 203.488281 120.847656 L 201.464844 124.558594 C 198.574219 129.878906 193.011719 133.179688 186.945312 133.179688 C 180.875 133.179688 175.3125 129.878906 172.421875 124.558594 L 170.398438 120.847656 L 119.128906 120.847656 L 119.128906 293.464844 L 162.285156 293.464844 L 162.285156 231.816406 " fill-opacity="1" fill-rule="nonzero"/><path fill="#ffde59" d="M 254.757812 305.796875 L 119.128906 305.796875 L 119.128906 318.125 L 254.757812 318.125 L 254.757812 305.796875 " fill-opacity="1" fill-rule="nonzero"/><path fill="#ffde59" d="M 199.273438 293.464844 L 199.273438 244.144531 L 174.613281 244.144531 L 174.613281 293.464844 L 199.273438 293.464844 " fill-opacity="1" fill-rule="nonzero"/><path fill="#ffde59" d="M 57.480469 342.785156 L 57.480469 305.796875 L 45.152344 305.796875 L 45.152344 342.785156 L 57.480469 342.785156 " fill-opacity="1" fill-rule="nonzero"/><path fill="#ffde59" d="M 304.078125 268.804688 L 316.40625 268.804688 L 316.40625 281.136719 L 304.078125 281.136719 Z M 304.078125 244.144531 L 316.40625 244.144531 L 316.40625 256.476562 L 304.078125 256.476562 Z M 304.078125 219.488281 L 316.40625 219.488281 L 316.40625 231.816406 L 304.078125 231.816406 Z M 304.078125 194.828125 L 316.40625 194.828125 L 316.40625 207.15625 L 304.078125 207.15625 Z M 328.734375 268.804688 L 341.066406 268.804688 L 341.066406 281.136719 L 328.734375 281.136719 Z M 328.734375 244.144531 L 341.066406 244.144531 L 341.066406 256.476562 L 328.734375 256.476562 Z M 328.734375 219.488281 L 341.066406 219.488281 L 341.066406 231.816406 L 328.734375 231.816406 Z M 328.734375 194.828125 L 341.066406 194.828125 L 341.066406 207.15625 L 328.734375 207.15625 Z M 304.078125 293.464844 L 341.066406 293.464844 L 341.066406 342.785156 L 353.394531 342.785156 L 353.394531 182.496094 L 291.746094 182.496094 L 291.746094 342.785156 L 304.078125 342.785156 L 304.078125 293.464844 " fill-opacity="1" fill-rule="nonzero"/><path fill="#ffde59" d="M 32.824219 268.804688 L 45.152344 268.804688 L 45.152344 281.136719 L 32.824219 281.136719 Z M 32.824219 244.144531 L 45.152344 244.144531 L 45.152344 256.476562 L 32.824219 256.476562 Z M 32.824219 219.488281 L 45.152344 219.488281 L 45.152344 231.816406 L 32.824219 231.816406 Z M 32.824219 194.828125 L 45.152344 194.828125 L 45.152344 207.15625 L 32.824219 207.15625 Z M 57.480469 268.804688 L 69.8125 268.804688 L 69.8125 281.136719 L 57.480469 281.136719 Z M 57.480469 244.144531 L 69.8125 244.144531 L 69.8125 256.476562 L 57.480469 256.476562 Z M 57.480469 219.488281 L 69.8125 219.488281 L 69.8125 231.816406 L 57.480469 231.816406 Z M 57.480469 194.828125 L 69.8125 194.828125 L 69.8125 207.15625 L 57.480469 207.15625 Z M 32.824219 293.464844 L 69.8125 293.464844 L 69.8125 342.785156 L 82.140625 342.785156 L 82.140625 182.496094 L 20.492188 182.496094 L 20.492188 342.785156 L 32.824219 342.785156 L 32.824219 293.464844 " fill-opacity="1" fill-rule="nonzero"/><g clip-path="url(#17bf622183)"><path fill="#ffde59" d="M 186.945312 22.210938 C 200.550781 22.210938 211.605469 33.265625 211.605469 46.871094 C 211.605469 60.476562 200.550781 71.53125 186.945312 71.53125 C 173.339844 71.53125 162.285156 60.476562 162.285156 46.871094 C 162.285156 33.265625 173.339844 22.210938 186.945312 22.210938 Z M 183.234375 118.65625 C 184.730469 121.355469 189.160156 121.355469 190.652344 118.65625 L 219.429688 65.917969 C 222.367188 60.5 223.933594 54.359375 223.933594 48.195312 L 223.933594 46.871094 C 223.933594 26.472656 207.339844 9.882812 186.945312 9.882812 C 166.546875 9.882812 149.953125 26.472656 149.953125 46.871094 L 149.953125 48.195312 C 149.953125 54.359375 151.519531 60.5 154.457031 65.917969 L 183.234375 118.65625 " fill-opacity="1" fill-rule="nonzero"/></g><g clip-path="url(#6419bf12f0)"><path fill="#ffde59" d="M 8.164062 355.113281 L 8.164062 367.445312 L 365.726562 367.445312 L 365.726562 355.113281 L 8.164062 355.113281 " fill-opacity="1" fill-rule="nonzero"/></g><path fill="#ffde59" d="M 328.734375 342.785156 L 328.734375 305.796875 L 316.40625 305.796875 L 316.40625 342.785156 L 328.734375 342.785156 " fill-opacity="1" fill-rule="nonzero"/></svg>