<svg xmlns="http://www.w3.org/2000/svg" xmlns:xlink="http://www.w3.org/1999/xlink" zoomAndPan="magnify" preserveAspectRatio="xMidYMid meet" version="1.0" viewBox="163.61 168.83 48 37.5"><defs><clipPath id="e4455527d8"><path d="M 163.605469 168.832031 L 204 168.832031 L 204 200 L 163.605469 200 Z M 163.605469 168.832031 " clip-rule="nonzero"/></clipPath><clipPath id="a21b12bf8b"><path d="M 163.605469 179 L 174 179 L 174 192 L 163.605469 192 Z M 163.605469 179 " clip-rule="nonzero"/></clipPath><clipPath id="3a847f9c4f"><path d="M 189 181 L 211.605469 181 L 211.605469 206.332031 L 189 206.332031 Z M 189 181 " clip-rule="nonzero"/></clipPath></defs><g clip-path="url(#e4455527d8)"><path fill="#ffde59" d="M 191.648438 199.796875 L 168.1875 199.796875 C 165.722656 199.796875 163.71875 197.792969 163.71875 195.328125 L 163.71875 173.355469 C 163.71875 170.894531 165.722656 168.886719 168.1875 168.886719 L 178.933594 168.886719 C 180.128906 168.886719 181.25 169.351562 182.09375 170.195312 L 186.242188 174.347656 C 186.804688 174.910156 187.554688 175.21875 188.347656 175.21875 L 199.09375 175.21875 C 201.558594 175.21875 203.5625 177.222656 203.5625 179.6875 L 203.5625 183.410156 C 203.5625 183.824219 203.230469 184.15625 202.820312 184.15625 C 202.410156 184.15625 202.074219 183.824219 202.074219 183.410156 L 202.074219 179.6875 C 202.074219 178.042969 200.738281 176.707031 199.09375 176.707031 L 188.347656 176.707031 C 187.15625 176.707031 186.035156 176.242188 185.191406 175.398438 L 181.039062 171.25 C 180.476562 170.6875 179.730469 170.378906 178.933594 170.378906 L 168.1875 170.378906 C 166.546875 170.378906 165.207031 171.714844 165.207031 173.355469 L 165.207031 195.328125 C 165.207031 196.96875 166.546875 198.308594 168.1875 198.308594 L 191.648438 198.308594 C 192.058594 198.308594 192.394531 198.640625 192.394531 199.050781 C 192.394531 199.460938 192.058594 199.796875 191.648438 199.796875 Z M 191.648438 199.796875 " fill-opacity="1" fill-rule="nonzero"/></g><g clip-path="url(#a21b12bf8b)"><path fill="#ffde59" d="M 169.675781 191.605469 C 169.574219 191.605469 169.472656 191.582031 169.375 191.539062 C 169 191.371094 168.828125 190.933594 168.996094 190.554688 L 171.6875 184.503906 L 164.128906 180.726562 C 163.761719 180.542969 163.613281 180.09375 163.796875 179.726562 C 163.980469 179.359375 164.429688 179.207031 164.796875 179.394531 L 172.988281 183.488281 C 173.34375 183.667969 173.5 184.09375 173.335938 184.457031 L 170.359375 191.160156 C 170.234375 191.4375 169.960938 191.605469 169.675781 191.605469 Z M 169.675781 191.605469 " fill-opacity="1" fill-rule="nonzero"/></g><path fill="#ffde59" d="M 170.050781 199.796875 C 169.859375 199.796875 169.667969 199.722656 169.523438 199.578125 C 169.230469 199.289062 169.230469 198.816406 169.523438 198.523438 L 175.328125 192.722656 L 170.640625 188.035156 C 170.347656 187.742188 170.347656 187.273438 170.640625 186.980469 C 170.929688 186.691406 171.402344 186.691406 171.691406 186.980469 L 176.90625 192.195312 C 177.199219 192.484375 177.199219 192.957031 176.90625 193.246094 L 170.574219 199.578125 C 170.429688 199.722656 170.238281 199.796875 170.050781 199.796875 Z M 170.050781 199.796875 " fill-opacity="1" fill-rule="nonzero"/><path fill="#ffde59" d="M 172.65625 184.902344 C 172.335938 184.902344 172.039062 184.691406 171.941406 184.371094 C 171.824219 183.976562 172.046875 183.5625 172.441406 183.441406 L 179.890625 181.207031 C 180.285156 181.089844 180.699219 181.3125 180.816406 181.707031 C 180.933594 182.101562 180.710938 182.515625 180.316406 182.636719 L 172.871094 184.871094 C 172.800781 184.890625 172.726562 184.902344 172.65625 184.902344 Z M 172.65625 184.902344 " fill-opacity="1" fill-rule="nonzero"/><path fill="#ffde59" d="M 188.347656 176.707031 L 172.65625 176.707031 C 172.246094 176.707031 171.910156 176.375 171.910156 175.964844 C 171.910156 175.550781 172.246094 175.21875 172.65625 175.21875 L 188.347656 175.21875 C 188.761719 175.21875 189.09375 175.550781 189.09375 175.964844 C 189.09375 176.375 188.761719 176.707031 188.347656 176.707031 Z M 188.347656 176.707031 " fill-opacity="1" fill-rule="nonzero"/><g clip-path="url(#3a847f9c4f)"><path fill="#ffde59" d="M 209.882812 186.21875 L 201.691406 181.535156 C 201.265625 181.296875 200.785156 181.175781 200.214844 181.175781 C 199.640625 181.175781 199.160156 181.296875 198.734375 181.535156 L 190.542969 186.21875 C 189.613281 186.746094 189.042969 187.738281 189.042969 188.804688 L 189.042969 194.109375 C 189.042969 197.691406 190.96875 201.027344 194.078125 202.824219 L 199.851562 206.035156 C 199.964844 206.097656 200.089844 206.128906 200.214844 206.128906 C 200.335938 206.128906 200.460938 206.097656 200.574219 206.035156 L 206.359375 202.820312 C 209.460938 201.027344 211.386719 197.691406 211.386719 194.109375 L 211.386719 188.804688 C 211.382812 187.738281 210.8125 186.746094 209.882812 186.21875 Z M 206.695312 190.265625 L 199.992188 196.96875 C 199.847656 197.113281 199.660156 197.191406 199.46875 197.191406 C 199.277344 197.191406 199.089844 197.113281 198.941406 196.96875 L 195.964844 193.992188 C 195.671875 193.699219 195.671875 193.230469 195.964844 192.941406 C 196.253906 192.648438 196.722656 192.648438 197.015625 192.941406 L 199.46875 195.390625 L 205.644531 189.21875 C 205.9375 188.921875 206.40625 188.921875 206.695312 189.21875 C 206.992188 189.507812 206.992188 189.976562 206.695312 190.265625 Z M 206.695312 190.265625 " fill-opacity="1" fill-rule="nonzero"/></g></svg>