<svg xmlns="http://www.w3.org/2000/svg" xmlns:xlink="http://www.w3.org/1999/xlink" zoomAndPan="magnify" preserveAspectRatio="xMidYMid meet" version="1.0" viewBox="151.27 153.02 59.47 51.04"><defs><clipPath id="3b7dcf6e2c"><path d="M 151.265625 153.015625 L 184 153.015625 L 184 199 L 151.265625 199 Z M 151.265625 153.015625 " clip-rule="nonzero"/></clipPath><clipPath id="1dbd893dbb"><path d="M 198 162 L 210.515625 162 L 210.515625 168 L 198 168 Z M 198 162 " clip-rule="nonzero"/></clipPath><clipPath id="9edc191a7b"><path d="M 183 169 L 210.515625 169 L 210.515625 204.015625 L 183 204.015625 Z M 183 169 " clip-rule="nonzero"/></clipPath></defs><g clip-path="url(#3b7dcf6e2c)"><path fill="#ffde59" d="M 153.339844 163.957031 C 153.429688 163.726562 153.664062 163.585938 153.894531 163.496094 C 153.894531 163.496094 180.042969 155.011719 180.507812 154.917969 L 180.554688 154.917969 C 180.738281 154.871094 181.621094 154.683594 182.6875 155.101562 L 183.660156 155.425781 L 183.523438 154.964844 C 183.152344 153.804688 182.085938 153.015625 180.832031 153.015625 C 180.554688 153.015625 180.230469 153.0625 179.953125 153.15625 L 153.339844 161.734375 C 152.644531 161.964844 152.039062 162.476562 151.714844 163.125 C 151.390625 163.773438 151.34375 164.515625 151.578125 165.210938 L 162.519531 198.359375 L 162.519531 197.109375 C 162.519531 196.183594 162.519531 194.234375 162.519531 192.472656 L 153.292969 164.652344 C 153.199219 164.421875 153.246094 164.191406 153.339844 163.957031 Z M 153.339844 163.957031 " fill-opacity="1" fill-rule="nonzero"/></g><path fill="#ffde59" d="M 160.199219 175.039062 L 161.914062 180.277344 C 162.007812 180.601562 162.242188 180.929688 162.519531 181.113281 L 162.519531 176.152344 L 161.960938 174.4375 L 162.519531 174.25 L 162.519531 172.304688 L 161.359375 172.675781 C 160.386719 173 159.875 174.066406 160.199219 175.039062 Z M 160.199219 175.039062 " fill-opacity="1" fill-rule="nonzero"/><path fill="#ffde59" d="M 181.296875 156.726562 C 180.089844 156.726562 179.023438 157.515625 178.652344 158.625 L 178.191406 159.972656 L 180.136719 159.972656 L 180.367188 159.230469 C 180.507812 158.859375 180.832031 158.582031 181.25 158.582031 C 181.34375 158.582031 181.433594 158.582031 181.527344 158.625 L 185.699219 159.972656 L 191.773438 159.972656 L 182.085938 156.863281 C 181.851562 156.773438 181.574219 156.726562 181.296875 156.726562 Z M 181.296875 156.726562 " fill-opacity="1" fill-rule="nonzero"/><path fill="#ffde59" d="M 192.144531 203.601562 L 194.972656 203.601562 C 196.132812 203.601562 197.105469 202.90625 197.523438 201.929688 Z M 192.144531 203.601562 " fill-opacity="1" fill-rule="nonzero"/><g clip-path="url(#1dbd893dbb)"><path fill="#ffde59" d="M 208.234375 167.203125 C 208.375 167.25 208.511719 167.34375 208.605469 167.4375 C 209.347656 167.296875 210.089844 167.4375 210.738281 167.898438 C 210.738281 167.527344 210.597656 167.15625 210.460938 166.832031 C 210.136719 166.183594 209.53125 165.675781 208.835938 165.441406 L 198.960938 162.289062 C 199.332031 162.9375 199.5625 163.679688 199.609375 164.421875 Z M 208.234375 167.203125 " fill-opacity="1" fill-rule="nonzero"/></g><g clip-path="url(#9edc191a7b)"><path fill="#ffde59" d="M 208.976562 183.757812 L 200.074219 191.5 C 200.074219 191.5 200.027344 191.5 199.980469 191.5 L 196.132812 187.511719 C 196.085938 187.464844 196.085938 187.371094 196.085938 187.328125 L 209.765625 170.773438 C 210.089844 170.355469 210.042969 169.800781 209.625 169.476562 C 209.207031 169.152344 208.652344 169.199219 208.328125 169.613281 L 194.695312 186.167969 C 194.1875 186.816406 194.1875 187.699219 194.558594 188.394531 C 192.839844 189.320312 190.800781 189.503906 189.503906 189.503906 C 189.316406 189.503906 189.179688 189.503906 189.039062 189.503906 L 188.992188 189.503906 C 188.4375 189.503906 187.925781 189.875 187.742188 190.386719 C 187.742188 190.386719 183.894531 203.324219 183.894531 203.367188 C 183.753906 203.832031 184.078125 204.15625 184.542969 204.019531 L 197.339844 200.03125 C 197.847656 199.890625 198.265625 199.289062 198.21875 198.730469 C 198.171875 196.042969 198.730469 194.328125 199.378906 193.214844 C 199.609375 193.308594 199.796875 193.355469 200.027344 193.355469 C 200.445312 193.355469 200.910156 193.214844 201.28125 192.890625 L 210.183594 185.148438 C 210.550781 184.824219 210.597656 184.21875 210.273438 183.847656 C 209.949219 183.476562 209.347656 183.433594 208.976562 183.757812 Z M 196.363281 198.40625 L 188.992188 200.679688 L 193.074219 196.597656 C 193.121094 196.597656 193.121094 196.597656 193.164062 196.597656 C 193.953125 196.597656 194.558594 195.996094 194.558594 195.207031 C 194.558594 194.421875 193.953125 193.816406 193.164062 193.816406 C 192.378906 193.816406 191.773438 194.421875 191.773438 195.207031 C 191.773438 195.253906 191.773438 195.253906 191.773438 195.300781 L 186.722656 200.308594 L 189.363281 191.359375 C 189.410156 191.359375 189.410156 191.359375 189.457031 191.359375 C 191.265625 191.359375 193.722656 191.082031 195.808594 189.785156 L 197.941406 192.007812 C 197.105469 193.355469 196.363281 195.394531 196.363281 198.40625 Z M 196.363281 198.40625 " fill-opacity="1" fill-rule="nonzero"/></g><path fill="#ffde59" d="M 206.054688 179.816406 L 199.890625 185.75 C 199.519531 186.121094 199.519531 186.675781 199.84375 187.046875 C 200.027344 187.234375 200.257812 187.328125 200.492188 187.328125 C 200.722656 187.328125 200.957031 187.234375 201.140625 187.046875 L 207.308594 181.113281 C 207.679688 180.742188 207.679688 180.1875 207.351562 179.816406 C 206.984375 179.492188 206.425781 179.492188 206.054688 179.816406 Z M 206.054688 179.816406 " fill-opacity="1" fill-rule="nonzero"/><path fill="#ffde59" d="M 181.851562 168.175781 C 181.804688 168.132812 181.714844 168.085938 181.621094 168.039062 C 181.433594 167.992188 181.25 167.945312 181.066406 168.039062 C 180.972656 168.085938 180.878906 168.132812 180.832031 168.175781 C 180.785156 168.222656 180.738281 168.269531 180.695312 168.363281 C 180.648438 168.457031 180.648438 168.503906 180.648438 168.59375 L 180.648438 169.058594 L 182.085938 169.058594 L 182.085938 168.640625 C 182.085938 168.546875 182.085938 168.457031 182.039062 168.410156 C 181.992188 168.316406 181.945312 168.222656 181.851562 168.175781 Z M 181.851562 168.175781 " fill-opacity="1" fill-rule="nonzero"/><path fill="#ffde59" d="M 194.972656 161.824219 L 167.15625 161.824219 C 165.625 161.824219 164.375 163.078125 164.375 164.609375 L 164.375 200.773438 C 164.375 202.300781 165.625 203.554688 167.15625 203.554688 L 181.992188 203.554688 C 181.992188 203.324219 182.039062 203.042969 182.085938 202.8125 C 182.085938 202.765625 183.105469 199.425781 184.078125 196.183594 L 170.402344 196.183594 C 169.890625 196.183594 169.472656 195.765625 169.472656 195.253906 C 169.472656 194.746094 169.890625 194.328125 170.402344 194.328125 L 184.632812 194.328125 C 184.867188 193.492188 185.191406 192.472656 185.191406 192.472656 L 170.402344 192.472656 C 169.890625 192.472656 169.472656 192.054688 169.472656 191.546875 C 169.472656 191.035156 169.890625 190.617188 170.402344 190.617188 L 185.746094 190.617188 L 185.980469 189.875 C 186.117188 189.460938 186.351562 189.089844 186.628906 188.765625 L 170.402344 188.765625 C 169.890625 188.765625 169.472656 188.347656 169.472656 187.835938 C 169.472656 187.328125 169.890625 186.910156 170.402344 186.910156 L 191.636719 186.910156 C 191.960938 186.910156 192.238281 187.046875 192.378906 187.28125 C 192.378906 187.28125 192.425781 187.28125 192.46875 187.28125 C 192.515625 186.492188 192.75 185.703125 193.257812 185.054688 L 193.304688 185.007812 L 197.800781 179.582031 L 197.800781 164.609375 C 197.757812 163.078125 196.503906 161.824219 194.972656 161.824219 Z M 172.253906 176.199219 L 189.875 176.199219 C 190.382812 176.199219 190.800781 176.617188 190.800781 177.125 L 190.800781 180.835938 C 190.800781 181.34375 190.382812 181.761719 189.875 181.761719 L 172.253906 181.761719 C 171.746094 181.761719 171.328125 181.34375 171.328125 180.835938 L 171.328125 177.125 C 171.328125 176.617188 171.746094 176.199219 172.253906 176.199219 Z M 172.253906 176.199219 " fill-opacity="1" fill-rule="nonzero"/></svg>