<svg xmlns="http://www.w3.org/2000/svg" xmlns:xlink="http://www.w3.org/1999/xlink" width="500" zoomAndPan="magnify" viewBox="0 0 375 374.999991" height="500" preserveAspectRatio="xMidYMid meet" version="1.0"><defs><clipPath id="6e66cbb878"><path d="M 7.308594 59.070312 L 368 59.070312 L 368 315.570312 L 7.308594 315.570312 Z M 7.308594 59.070312 " clip-rule="nonzero"/></clipPath></defs><g clip-path="url(#6e66cbb878)"><path fill="#ffde59" d="M 231.949219 199.984375 L 359.105469 309.027344 C 354.496094 313.347656 348.273438 316 341.414062 316 L 33.460938 316 C 26.5625 316 20.339844 313.328125 15.710938 309.027344 L 142.925781 199.984375 L 187.4375 238.925781 Z M 359.164062 66.046875 C 354.554688 61.742188 348.328125 59.070312 341.433594 59.070312 L 33.460938 59.070312 C 26.601562 59.070312 20.378906 61.742188 15.765625 66.101562 L 187.4375 213.242188 Z M 7.582031 81.625 L 7.582031 295.078125 L 131.765625 189.574219 Z M 243.128906 189.574219 L 367.308594 295.078125 L 367.308594 81.546875 Z M 243.128906 189.574219 " fill-opacity="1" fill-rule="nonzero"/></g></svg>