<svg xmlns="http://www.w3.org/2000/svg" xmlns:xlink="http://www.w3.org/1999/xlink" width="500" zoomAndPan="magnify" viewBox="0 0 375 374.999991" height="500" preserveAspectRatio="xMidYMid meet" version="1.0"><defs><clipPath id="9e3024cfa2"><path d="M 14 13.839844 L 361 13.839844 L 361 361.089844 L 14 361.089844 Z M 14 13.839844 " clip-rule="nonzero"/></clipPath></defs><g clip-path="url(#9e3024cfa2)"><path fill="#ffde59" d="M 332.132812 13.839844 L 43.027344 13.839844 C 27.042969 13.839844 14.1875 26.871094 14.1875 42.679688 L 14.1875 332.308594 C 14.1875 348.292969 27.21875 361.148438 43.027344 361.148438 L 331.960938 361.148438 C 347.945312 361.148438 360.800781 348.117188 360.800781 332.308594 L 360.800781 42.679688 C 360.976562 26.871094 348.117188 13.839844 332.132812 13.839844 Z M 116.867188 300.339844 L 65.613281 300.339844 L 65.613281 146.40625 L 116.867188 146.40625 Z M 91.15625 127.8125 C 74.996094 127.8125 61.964844 114.785156 61.964844 98.625 C 61.964844 82.46875 74.996094 69.4375 91.15625 69.4375 C 107.3125 69.4375 120.34375 82.46875 120.34375 98.625 C 120.34375 114.785156 107.3125 127.8125 91.15625 127.8125 Z M 309.722656 300.339844 L 258.292969 300.339844 L 257.078125 208.953125 C 257.078125 208.953125 258.292969 184.628906 231.710938 184.800781 C 205.128906 184.976562 201.480469 208.953125 201.480469 208.953125 L 201.480469 300.339844 L 149.707031 300.339844 L 149.707031 146.40625 L 199.394531 146.40625 L 199.394531 167.601562 C 199.394531 167.601562 201.480469 160.652344 212.949219 152.484375 C 224.414062 144.320312 243.351562 142.582031 251.519531 142.929688 C 259.683594 143.277344 270.804688 141.886719 289.394531 154.742188 C 309.375 168.46875 309.894531 204.433594 309.894531 204.433594 Z M 309.722656 300.339844 " fill-opacity="1" fill-rule="nonzero"/></g></svg>