<svg xmlns="http://www.w3.org/2000/svg" xmlns:xlink="http://www.w3.org/1999/xlink" width="500" zoomAndPan="magnify" viewBox="0 0 375 374.999991" height="500" preserveAspectRatio="xMidYMid meet" version="1.0"><defs><clipPath id="579de41d1f"><path d="M 12.863281 277 L 362.128906 277 L 362.128906 317.113281 L 12.863281 317.113281 Z M 12.863281 277 " clip-rule="nonzero"/></clipPath><clipPath id="e28fe8daed"><path d="M 12.863281 165 L 362.363281 165 L 362.363281 206 L 12.863281 206 Z M 12.863281 165 " clip-rule="nonzero"/></clipPath><clipPath id="ff4039bca9"><path d="M 12.863281 57.613281 L 362.363281 57.613281 L 362.363281 98 L 12.863281 98 Z M 12.863281 57.613281 " clip-rule="nonzero"/></clipPath></defs><g clip-path="url(#579de41d1f)"><path fill="#ffde59" d="M 33.015625 317.355469 L 341.980469 317.355469 C 353.109375 317.355469 362.128906 308.335938 362.128906 297.207031 C 362.128906 286.074219 353.109375 277.058594 341.980469 277.058594 L 33.015625 277.058594 C 21.886719 277.058594 12.863281 286.074219 12.863281 297.207031 C 12.863281 308.335938 21.886719 317.355469 33.015625 317.355469 " fill-opacity="1" fill-rule="nonzero"/></g><g clip-path="url(#e28fe8daed)"><path fill="#ffde59" d="M 33.015625 205.410156 L 341.980469 205.410156 C 353.109375 205.410156 362.128906 196.390625 362.128906 185.261719 C 362.128906 174.128906 353.109375 165.113281 341.980469 165.113281 L 33.015625 165.113281 C 21.886719 165.113281 12.863281 174.128906 12.863281 185.261719 C 12.863281 196.390625 21.886719 205.410156 33.015625 205.410156 " fill-opacity="1" fill-rule="nonzero"/></g><g clip-path="url(#ff4039bca9)"><path fill="#ffde59" d="M 12.863281 77.796875 C 12.863281 88.921875 21.886719 97.945312 33.015625 97.945312 L 341.980469 97.945312 C 353.109375 97.945312 362.128906 88.921875 362.128906 77.796875 C 362.128906 66.664062 353.109375 57.644531 341.980469 57.644531 L 33.015625 57.644531 C 21.886719 57.644531 12.863281 66.664062 12.863281 77.796875 " fill-opacity="1" fill-rule="nonzero"/></g></svg>