<svg xmlns="http://www.w3.org/2000/svg" xmlns:xlink="http://www.w3.org/1999/xlink" zoomAndPan="magnify" preserveAspectRatio="xMidYMid meet" version="1.0" viewBox="144.93 139.36 85.5 86.54"><defs><clipPath id="566823447c"><path d="M 144.929688 158 L 230.429688 158 L 230.429688 225.609375 L 144.929688 225.609375 Z M 144.929688 158 " clip-rule="nonzero"/></clipPath><clipPath id="180627af07"><path d="M 178 139.359375 L 197 139.359375 L 197 157 L 178 157 Z M 178 139.359375 " clip-rule="nonzero"/></clipPath></defs><g clip-path="url(#566823447c)"><path fill="#ffde59" d="M 164.027344 224.4375 C 168.722656 221.449219 172.632812 217.65625 175.761719 213.054688 L 175.761719 219.140625 C 175.753906 220.03125 175.917969 220.886719 176.25 221.707031 C 176.582031 222.53125 177.0625 223.261719 177.683594 223.894531 C 178.292969 224.539062 179 225.035156 179.816406 225.382812 C 180.628906 225.734375 181.476562 225.90625 182.363281 225.902344 C 183.371094 225.894531 184.324219 225.667969 185.226562 225.214844 C 186.128906 224.765625 186.886719 224.140625 187.496094 223.335938 C 188.109375 224.140625 188.863281 224.765625 189.765625 225.214844 C 190.667969 225.667969 191.621094 225.894531 192.628906 225.902344 C 193.511719 225.90625 194.359375 225.734375 195.167969 225.386719 C 195.980469 225.042969 196.6875 224.546875 197.296875 223.910156 C 197.921875 223.273438 198.402344 222.542969 198.738281 221.71875 C 199.074219 220.890625 199.238281 220.03125 199.230469 219.140625 L 199.230469 213.054688 C 202.359375 217.65625 206.269531 221.449219 210.964844 224.4375 C 213.492188 222.832031 215.808594 220.96875 217.921875 218.851562 C 220.035156 216.734375 221.890625 214.410156 223.492188 211.882812 C 225.09375 209.355469 226.398438 206.683594 227.40625 203.867188 C 228.417969 201.050781 229.105469 198.15625 229.476562 195.1875 L 230.035156 190.699219 L 210.964844 180.433594 L 208.03125 182.015625 L 208.03125 169.664062 C 208.027344 168.570312 207.863281 167.503906 207.546875 166.457031 C 207.230469 165.410156 206.769531 164.433594 206.164062 163.519531 C 205.5625 162.609375 204.84375 161.800781 204.003906 161.101562 C 203.164062 160.398438 202.246094 159.832031 201.242188 159.398438 C 199.835938 158.792969 198.371094 158.488281 196.839844 158.488281 L 178.195312 158.488281 C 176.667969 158.488281 175.199219 158.792969 173.796875 159.398438 C 172.792969 159.832031 171.871094 160.398438 171.035156 161.101562 C 170.195312 161.800781 169.476562 162.609375 168.871094 163.519531 C 168.269531 164.433594 167.808594 165.410156 167.492188 166.457031 C 167.171875 167.503906 167.011719 168.570312 167.003906 169.664062 L 167.003906 182.015625 L 164.027344 180.433594 L 144.957031 190.699219 L 145.515625 195.1875 C 145.886719 198.15625 146.578125 201.050781 147.585938 203.867188 C 148.597656 206.683594 149.902344 209.355469 151.5 211.882812 C 153.101562 214.410156 154.957031 216.734375 157.070312 218.851562 C 159.183594 220.96875 161.503906 222.832031 164.027344 224.4375 Z M 215.527344 194.441406 C 215.625 194.28125 215.746094 194.144531 215.890625 194.03125 C 216.039062 193.921875 216.199219 193.839844 216.378906 193.785156 C 216.554688 193.734375 216.738281 193.71875 216.921875 193.734375 C 217.105469 193.753906 217.28125 193.804688 217.445312 193.886719 C 217.613281 193.972656 217.757812 194.082031 217.878906 194.21875 C 218.003906 194.359375 218.097656 194.515625 218.160156 194.6875 C 218.226562 194.863281 218.253906 195.039062 218.25 195.226562 C 218.246094 195.410156 218.210938 195.589844 218.140625 195.761719 L 210.804688 210.429688 C 210.570312 210.886719 210.199219 211.152344 209.691406 211.21875 L 209.5 211.21875 C 209.066406 211.21875 208.703125 211.058594 208.414062 210.738281 L 204.011719 205.851562 C 203.882812 205.707031 203.78125 205.542969 203.714844 205.359375 C 203.648438 205.175781 203.621094 204.984375 203.628906 204.789062 C 203.640625 204.59375 203.6875 204.40625 203.769531 204.230469 C 203.855469 204.054688 203.96875 203.898438 204.117188 203.769531 C 204.261719 203.640625 204.425781 203.542969 204.609375 203.480469 C 204.792969 203.414062 204.980469 203.390625 205.175781 203.398438 C 205.367188 203.410156 205.550781 203.457031 205.726562 203.542969 C 205.902344 203.628906 206.054688 203.742188 206.183594 203.886719 L 209.117188 207.171875 Z M 169.894531 169.664062 C 169.894531 168.851562 170.007812 168.058594 170.242188 167.277344 C 170.472656 166.5 170.8125 165.773438 171.261719 165.09375 C 171.710938 164.414062 172.246094 163.816406 172.867188 163.296875 C 173.492188 162.777344 174.179688 162.355469 174.925781 162.039062 C 175.96875 161.578125 177.058594 161.351562 178.195312 161.363281 L 183.097656 161.363281 C 183.097656 162.199219 183.316406 162.972656 183.757812 163.683594 C 184.199219 164.398438 184.796875 164.9375 185.546875 165.308594 L 183.285156 177.660156 C 183.160156 178.371094 183.238281 179.0625 183.523438 179.726562 L 187.496094 187.765625 L 191.472656 179.726562 C 191.753906 179.0625 191.832031 178.371094 191.707031 177.660156 L 189.449219 165.308594 C 190.199219 164.9375 190.792969 164.398438 191.234375 163.683594 C 191.675781 162.972656 191.898438 162.199219 191.898438 161.363281 L 196.796875 161.363281 C 197.933594 161.351562 199.027344 161.578125 200.066406 162.039062 C 200.816406 162.355469 201.5 162.777344 202.125 163.296875 C 202.75 163.816406 203.285156 164.414062 203.730469 165.09375 C 204.179688 165.773438 204.519531 166.5 204.75 167.277344 C 204.984375 168.058594 205.101562 168.851562 205.097656 169.664062 L 205.097656 183.585938 L 199.230469 186.753906 L 199.230469 176.03125 C 199.230469 175.835938 199.195312 175.648438 199.121094 175.46875 C 199.046875 175.289062 198.9375 175.132812 198.800781 174.996094 C 198.664062 174.855469 198.503906 174.75 198.324219 174.675781 C 198.144531 174.601562 197.957031 174.566406 197.765625 174.566406 C 197.570312 174.566406 197.382812 174.601562 197.203125 174.675781 C 197.023438 174.75 196.863281 174.855469 196.726562 174.996094 C 196.589844 175.132812 196.484375 175.289062 196.410156 175.46875 C 196.335938 175.648438 196.296875 175.835938 196.296875 176.03125 L 196.296875 188.308594 L 191.898438 190.699219 L 192.453125 195.1875 C 193.019531 199.691406 194.300781 203.976562 196.296875 208.050781 L 196.296875 219.140625 C 196.300781 220.199219 195.933594 221.109375 195.199219 221.871094 C 194.5 222.605469 193.644531 222.972656 192.628906 222.96875 C 192.132812 222.957031 191.65625 222.851562 191.203125 222.652344 C 190.75 222.453125 190.351562 222.171875 190.007812 221.8125 C 189.664062 221.453125 189.398438 221.042969 189.21875 220.582031 C 189.039062 220.117188 188.953125 219.636719 188.964844 219.140625 L 188.964844 193.632812 C 188.964844 193.4375 188.925781 193.25 188.851562 193.070312 C 188.777344 192.890625 188.671875 192.734375 188.535156 192.597656 C 188.394531 192.457031 188.238281 192.351562 188.058594 192.277344 C 187.878906 192.203125 187.691406 192.167969 187.496094 192.167969 C 187.300781 192.167969 187.113281 192.203125 186.933594 192.277344 C 186.753906 192.351562 186.597656 192.457031 186.460938 192.597656 C 186.320312 192.734375 186.214844 192.890625 186.140625 193.070312 C 186.066406 193.25 186.03125 193.4375 186.03125 193.632812 L 186.03125 219.140625 C 186.039062 219.636719 185.953125 220.117188 185.773438 220.582031 C 185.59375 221.042969 185.332031 221.453125 184.988281 221.8125 C 184.644531 222.171875 184.246094 222.453125 183.789062 222.652344 C 183.335938 222.851562 182.859375 222.957031 182.363281 222.96875 C 181.339844 222.972656 180.480469 222.601562 179.78125 221.855469 C 179.050781 221.097656 178.691406 220.191406 178.695312 219.140625 L 178.695312 208.050781 C 180.691406 203.976562 181.972656 199.691406 182.539062 195.1875 L 183.097656 190.699219 L 178.695312 188.324219 L 178.695312 176.03125 C 178.695312 175.835938 178.660156 175.648438 178.585938 175.46875 C 178.507812 175.289062 178.402344 175.132812 178.265625 174.996094 C 178.128906 174.855469 177.96875 174.75 177.789062 174.675781 C 177.609375 174.601562 177.421875 174.566406 177.230469 174.566406 C 177.035156 174.566406 176.847656 174.601562 176.667969 174.675781 C 176.488281 174.75 176.328125 174.855469 176.191406 174.996094 C 176.054688 175.132812 175.949219 175.289062 175.875 175.46875 C 175.800781 175.648438 175.761719 175.835938 175.761719 176.03125 L 175.761719 186.753906 L 169.894531 183.585938 Z M 157.175781 203.785156 C 157.324219 203.65625 157.488281 203.558594 157.667969 203.496094 C 157.851562 203.429688 158.042969 203.402344 158.234375 203.414062 C 158.429688 203.425781 158.613281 203.472656 158.789062 203.558594 C 158.964844 203.640625 159.117188 203.757812 159.246094 203.902344 L 162.179688 207.1875 L 168.558594 194.441406 C 168.65625 194.28125 168.777344 194.144531 168.921875 194.03125 C 169.070312 193.921875 169.234375 193.839844 169.410156 193.785156 C 169.589844 193.734375 169.769531 193.71875 169.953125 193.734375 C 170.136719 193.753906 170.3125 193.804688 170.480469 193.886719 C 170.644531 193.972656 170.789062 194.082031 170.910156 194.21875 C 171.035156 194.359375 171.128906 194.515625 171.191406 194.6875 C 171.257812 194.863281 171.285156 195.039062 171.285156 195.226562 C 171.28125 195.410156 171.242188 195.589844 171.171875 195.761719 L 163.835938 210.429688 C 163.605469 210.886719 163.234375 211.152344 162.722656 211.21875 L 162.558594 211.21875 C 162.128906 211.21875 161.765625 211.058594 161.476562 210.738281 L 157.074219 205.851562 C 156.945312 205.707031 156.847656 205.542969 156.78125 205.363281 C 156.714844 205.179688 156.6875 204.992188 156.699219 204.796875 C 156.707031 204.601562 156.753906 204.417969 156.835938 204.242188 C 156.921875 204.066406 157.035156 203.914062 157.175781 203.785156 Z M 157.175781 203.785156 " fill-opacity="1" fill-rule="nonzero"/></g><g clip-path="url(#180627af07)"><path fill="#ffde59" d="M 196.296875 148.160156 C 196.296875 148.738281 196.242188 149.3125 196.128906 149.878906 C 196.015625 150.445312 195.847656 150.996094 195.628906 151.53125 C 195.40625 152.0625 195.136719 152.570312 194.8125 153.050781 C 194.492188 153.53125 194.128906 153.976562 193.71875 154.386719 C 193.3125 154.792969 192.867188 155.160156 192.386719 155.480469 C 191.90625 155.800781 191.398438 156.070312 190.863281 156.292969 C 190.332031 156.515625 189.78125 156.679688 189.214844 156.792969 C 188.648438 156.90625 188.074219 156.960938 187.496094 156.960938 C 186.917969 156.960938 186.347656 156.90625 185.78125 156.792969 C 185.210938 156.679688 184.664062 156.515625 184.128906 156.292969 C 183.59375 156.070312 183.085938 155.800781 182.605469 155.480469 C 182.125 155.160156 181.683594 154.792969 181.273438 154.386719 C 180.863281 153.976562 180.5 153.53125 180.179688 153.050781 C 179.859375 152.570312 179.585938 152.0625 179.367188 151.53125 C 179.144531 150.996094 178.976562 150.445312 178.863281 149.878906 C 178.753906 149.3125 178.695312 148.738281 178.695312 148.160156 C 178.695312 147.582031 178.753906 147.011719 178.863281 146.445312 C 178.976562 145.878906 179.144531 145.328125 179.367188 144.792969 C 179.585938 144.257812 179.859375 143.753906 180.179688 143.273438 C 180.5 142.792969 180.863281 142.347656 181.273438 141.9375 C 181.683594 141.53125 182.125 141.164062 182.605469 140.84375 C 183.085938 140.523438 183.59375 140.25 184.128906 140.03125 C 184.664062 139.808594 185.210938 139.640625 185.78125 139.53125 C 186.347656 139.417969 186.917969 139.359375 187.496094 139.359375 C 188.074219 139.359375 188.648438 139.417969 189.214844 139.53125 C 189.78125 139.640625 190.332031 139.808594 190.863281 140.03125 C 191.398438 140.25 191.90625 140.523438 192.386719 140.84375 C 192.867188 141.164062 193.3125 141.53125 193.71875 141.9375 C 194.128906 142.347656 194.492188 142.792969 194.8125 143.273438 C 195.136719 143.753906 195.40625 144.257812 195.628906 144.792969 C 195.847656 145.328125 196.015625 145.878906 196.128906 146.445312 C 196.242188 147.011719 196.296875 147.582031 196.296875 148.160156 Z M 196.296875 148.160156 " fill-opacity="1" fill-rule="nonzero"/></g></svg>