<svg xmlns="http://www.w3.org/2000/svg" xmlns:xlink="http://www.w3.org/1999/xlink" zoomAndPan="magnify" preserveAspectRatio="xMidYMid meet" version="1.0" viewBox="165.1 166.33 44.9 42.25"><defs><clipPath id="ea5f0d7fea"><path d="M 165.097656 166.328125 L 210 166.328125 L 210 208.328125 L 165.097656 208.328125 Z M 165.097656 166.328125 " clip-rule="nonzero"/></clipPath></defs><g clip-path="url(#ea5f0d7fea)"><path fill="#ffde59" d="M 193.703125 184.882812 C 189.03125 184.882812 185.242188 188.667969 185.242188 193.34375 C 185.242188 198.015625 189.03125 201.804688 193.703125 201.804688 C 195.789062 201.804688 197.695312 201.050781 199.167969 199.804688 L 201.582031 202.167969 L 201.484375 202.269531 C 201.164062 202.597656 201.171875 203.128906 201.503906 203.449219 L 206.550781 208.347656 C 206.882812 208.667969 207.414062 208.660156 207.734375 208.332031 L 209.554688 206.453125 C 209.875 206.121094 209.867188 205.589844 209.539062 205.269531 L 204.488281 200.371094 C 204.160156 200.050781 203.628906 200.058594 203.308594 200.390625 L 203.195312 200.503906 L 200.71875 198.078125 C 201.632812 196.726562 202.167969 195.097656 202.167969 193.34375 C 202.167969 188.667969 198.378906 184.882812 193.703125 184.882812 Z M 188.375 169.167969 L 196.910156 183.949219 C 196.003906 183.640625 195.039062 183.457031 194.039062 183.425781 L 186.449219 170.277344 L 186.445312 170.277344 C 186.132812 169.738281 185.699219 169.308594 185.1875 169.015625 C 184.671875 168.71875 184.085938 168.554688 183.464844 168.554688 C 182.847656 168.554688 182.257812 168.71875 181.742188 169.015625 C 181.246094 169.300781 180.820312 169.71875 180.511719 170.234375 C 180.503906 170.25 180.492188 170.265625 180.484375 170.277344 L 168.070312 191.78125 C 167.757812 192.324219 167.601562 192.914062 167.601562 193.503906 C 167.601562 194.089844 167.757812 194.679688 168.070312 195.222656 C 168.382812 195.761719 168.816406 196.191406 169.328125 196.488281 C 169.84375 196.785156 170.433594 196.949219 171.050781 196.949219 L 184.457031 196.949219 C 184.765625 197.746094 185.175781 198.492188 185.671875 199.171875 L 171.050781 199.171875 C 169.011719 199.171875 167.164062 198.105469 166.140625 196.335938 C 165.121094 194.570312 165.121094 192.4375 166.140625 190.667969 L 178.554688 169.167969 C 179.578125 167.398438 181.425781 166.332031 183.464844 166.332031 C 185.507812 166.332031 187.355469 167.398438 188.375 169.167969 Z M 183.464844 188.597656 C 182.609375 188.597656 181.914062 189.292969 181.914062 190.152344 C 181.914062 191.007812 182.609375 191.703125 183.464844 191.703125 C 183.625 191.703125 183.78125 191.679688 183.925781 191.632812 C 183.832031 192.1875 183.78125 192.761719 183.78125 193.34375 C 183.78125 194.078125 183.859375 194.796875 184.011719 195.484375 L 171.050781 195.484375 C 170.683594 195.484375 170.34375 195.394531 170.054688 195.226562 C 169.761719 195.058594 169.511719 194.808594 169.332031 194.496094 C 169.152344 194.1875 169.0625 193.84375 169.0625 193.503906 C 169.0625 193.160156 169.152344 192.820312 169.332031 192.511719 L 181.746094 171.007812 C 181.753906 170.996094 181.761719 170.984375 181.765625 170.972656 C 181.945312 170.675781 182.1875 170.441406 182.46875 170.277344 C 182.757812 170.109375 183.101562 170.019531 183.464844 170.019531 C 183.832031 170.019531 184.171875 170.109375 184.464844 170.277344 C 184.753906 170.445312 185.003906 170.695312 185.183594 171.007812 L 185.1875 171.007812 L 185.183594 171.007812 L 192.398438 183.503906 C 188.964844 183.957031 186.085938 186.164062 184.6875 189.191406 C 184.402344 188.832031 183.960938 188.597656 183.464844 188.597656 Z M 183.464844 186.976562 C 184.117188 186.976562 184.652344 186.457031 184.675781 185.808594 L 184.984375 177.324219 C 184.996094 176.984375 184.882812 176.6875 184.644531 176.441406 C 184.40625 176.195312 184.113281 176.070312 183.773438 176.070312 C 183.339844 176.070312 183.59375 176.070312 183.160156 176.070312 C 182.820312 176.070312 182.523438 176.195312 182.289062 176.441406 C 182.050781 176.6875 181.9375 176.984375 181.949219 177.324219 L 182.253906 185.808594 C 182.277344 186.457031 182.8125 186.976562 183.464844 186.976562 Z M 193.703125 187.359375 C 197.007812 187.359375 199.6875 190.039062 199.6875 193.34375 C 199.6875 196.648438 197.007812 199.328125 193.703125 199.328125 C 190.398438 199.328125 187.722656 196.648438 187.722656 193.34375 C 187.722656 190.039062 190.398438 187.359375 193.703125 187.359375 Z M 193.703125 187.359375 " fill-opacity="1" fill-rule="evenodd"/></g></svg>